# xmcd CD database file generated by Grip 3.0.7
# 
# Track frame offsets:
#       150
#       16697
#       32556
#       51553
#       74337
#       96977
#       109590
#       130842
# 
# Disc length: 1982 seconds
# 
# Revision: 3
# Processed by: cddbd v1.5.1PL0 Copyright (c) Steve Scherf et al.
# Submitted via: Grip 3.0.7
# 
DISCID=6607bc08
DTITLE=The Katinas - 103803
DYEAR=2004
DGENRE=Christian Rock
TTITLE0=One More Time - without lead vocals
TTITLE1=Thank You - without lead vocals
TTITLE2=Rejoice - without lead vocals
TTITLE3=Eagles Wings - with lead vocals
TTITLE4=One More Time - with lead vocals
TTITLE5=Thank You - with lead vocals
TTITLE6=Rejoice - with lead vocals
TTITLE7=Eagles Wings - with lead vocals
EXTD=
EXTT0=
EXTT1=
EXTT2=
EXTT3=
EXTT4=
EXTT5=
EXTT6=
EXTT7=
PLAYORDER=
